<svg width="1440" height="3490" viewBox="0 0 1440 3490" fill="none" xmlns="http://www.w3.org/2000/svg">
<circle cx="460" cy="3490" r="75" fill="white" fill-opacity="0.2"/>
<circle cx="460.5" cy="3489.5" r="62.5" fill="#6C63FF"/>
<circle cx="460" cy="3490" r="50" fill="white" fill-opacity="0.2"/>
<circle cx="460.5" cy="3489.5" r="37.5" fill="#6C63FF"/>
<circle cy="1951" r="75" fill="white" fill-opacity="0.2"/>
<circle cx="0.5" cy="1950.5" r="62.5" fill="#6C63FF"/>
<circle cy="1951" r="50" fill="white" fill-opacity="0.2"/>
<circle cx="0.5" cy="1950.5" r="37.5" fill="#6C63FF"/>
<circle cx="952" cy="2320" r="75" fill="white" fill-opacity="0.2"/>
<circle cx="952.5" cy="2319.5" r="62.5" fill="#6C63FF"/>
<circle cx="952" cy="2320" r="50" fill="white" fill-opacity="0.2"/>
<circle cx="952.5" cy="2319.5" r="37.5" fill="#6C63FF"/>
<circle cx="2.5" cy="2654.5" r="112.5" fill="white" fill-opacity="0.2"/>
<circle cx="3.25" cy="2653.75" r="93.75" fill="#6C63FF"/>
<circle cx="2.5" cy="2654.5" r="75" fill="white" fill-opacity="0.2"/>
<circle cx="3.25" cy="2653.75" r="56.25" fill="#6C63FF"/>
<circle cx="1223.5" cy="3207.5" r="112.5" fill="white" fill-opacity="0.2"/>
<circle cx="1224.25" cy="3206.75" r="93.75" fill="#6C63FF"/>
<circle cx="1223.5" cy="3207.5" r="75" fill="white" fill-opacity="0.2"/>
<circle cx="1224.25" cy="3206.75" r="56.25" fill="#6C63FF"/>
<circle cx="1354" cy="1365" r="175" fill="white" fill-opacity="0.2"/>
<ellipse cx="1355.17" cy="1363.83" rx="145.833" ry="145.833" fill="#6C63FF"/>
<ellipse cx="1354" cy="1365" rx="116.667" ry="116.667" fill="white" fill-opacity="0.2"/>
<circle cx="1355.17" cy="1363.83" r="87.5" fill="#6C63FF"/>
<circle cx="1377" cy="2015" r="125" fill="white" fill-opacity="0.2"/>
<ellipse cx="1377.83" cy="2014.17" rx="104.167" ry="104.167" fill="#6C63FF"/>
<ellipse cx="1377" cy="2015" rx="83.3333" ry="83.3333" fill="white" fill-opacity="0.2"/>
<circle cx="1377.83" cy="2014.17" r="62.5" fill="#6C63FF"/>
<circle cx="238" cy="1468" r="75" fill="white" fill-opacity="0.2"/>
<circle cx="238.5" cy="1467.5" r="62.5" fill="#6C63FF"/>
<circle cx="238" cy="1468" r="50" fill="white" fill-opacity="0.2"/>
<circle cx="238.5" cy="1467.5" r="37.5" fill="#6C63FF"/>
<circle cx="30" cy="870" r="75" fill="white" fill-opacity="0.2"/>
<circle cx="30.5" cy="869.5" r="62.5" fill="#6C63FF"/>
<circle cx="30" cy="870" r="50" fill="white" fill-opacity="0.2"/>
<circle cx="30.5" cy="869.5" r="37.5" fill="#6C63FF"/>
<g filter="url(#filter0_f_10_96)">
<ellipse cx="169" cy="155" rx="257" ry="249" fill="#5045FF"/>
</g>
<g filter="url(#filter1_f_10_96)">
<ellipse cx="1289" cy="688" rx="257" ry="249" fill="#9B95FF"/>
</g>
<defs>
<filter id="filter0_f_10_96" x="-288" y="-294" width="914" height="898" filterUnits="userSpaceOnUse" color-interpolation-filters="sRGB">
<feFlood flood-opacity="0" result="BackgroundImageFix"/>
<feBlend mode="normal" in="SourceGraphic" in2="BackgroundImageFix" result="shape"/>
<feGaussianBlur stdDeviation="100" result="effect1_foregroundBlur_10_96"/>
</filter>
<filter id="filter1_f_10_96" x="832" y="239" width="914" height="898" filterUnits="userSpaceOnUse" color-interpolation-filters="sRGB">
<feFlood flood-opacity="0" result="BackgroundImageFix"/>
<feBlend mode="normal" in="SourceGraphic" in2="BackgroundImageFix" result="shape"/>
<feGaussianBlur stdDeviation="100" result="effect1_foregroundBlur_10_96"/>
</filter>
</defs>
</svg>
